<?xml version="1.0" encoding="utf-8"?>
<!-- Generator: Adobe Illustrator 23.0.6, SVG Export Plug-In . SVG Version: 6.00 Build 0)  -->
<svg version="1.1" id="Capa_1" xmlns="http://www.w3.org/2000/svg" xmlns:xlink="http://www.w3.org/1999/xlink" x="0px" y="0px"
	 viewBox="0 0 25 21" style="enable-background:new 0 0 25 21;" xml:space="preserve">
<style type="text/css">
	.st0{fill:#003399;}
</style>
<g id="XMLID_1_">
	<g>
		<path class="st0" d="M24,0.7c0.5,0,1,0.4,1,1s-0.5,1-1,1V0.7z"/>
		<path class="st0" d="M24,18.3c0.5,0,1,0.4,1,1c0,0.5-0.5,1-1,1V18.3z"/>
		<rect x="1" y="18.3" class="st0" width="23" height="2"/>
		<rect x="1" y="0.7" class="st0" width="23" height="2"/>
		<path class="st0" d="M12.5,9.5c0.6,0,1,0.4,1,1s-0.4,1-1,1V9.5z"/>
		<rect x="1" y="9.5" class="st0" width="11.5" height="2"/>
		<path class="st0" d="M1,18.3v2c-0.6,0-1-0.5-1-1C0,18.7,0.4,18.3,1,18.3z"/>
		<path class="st0" d="M1,9.5v2c-0.6,0-1-0.4-1-1S0.4,9.5,1,9.5z"/>
		<path class="st0" d="M1,0.7v2c-0.6,0-1-0.5-1-1S0.4,0.7,1,0.7z"/>
	</g>
	<g>
	</g>
</g>
</svg>
